# xmcd
#
# Track frame offsets:
#	150
#	16537
#	35154
#	50207
#	66372
#	80016
#	94211
#	110859
#	125838
#	151065
#	171202
#	189179
#	210268
#	227908
#	240936
#	255261
#	273819
#	290143
#	303947
#	320177
#	337130
#
# Disc length: 4684 seconds
#
# Revision: 0
# Processed by: cddbd v1.5.2PL0 Copyright (c) Steve Scherf et al.
# Submitted via: EasyCDDAExtractor 16.1.0.1
#
DISCID=30124a15
DTITLE=Various Artist - Country Songwriters
DYEAR=2016
DGENRE=Country
TTITLE0=Maddie and Tae - Girl In A Country Song
TTITLE1=Dean Brody - Upside Down
TTITLE2=Cam - My Mistake
TTITLE3=Kip Moore - Somethin' Bout A Truck
TTITLE4=Brad Paisley - River Bank
TTITLE5=Chase Rice - Ready Set Roll
TTITLE6=Drew McAlister - Till Summer Slips Away
TTITLE7=Carrie Underwood - Smoke Break
TTITLE8=Brothers Osbourne - Stay A Little Longer
TTITLE9=Travis Collins - Don't Win Enough
TTITLE10=Beccy Cole - Poster Girl (Wrong Side Of The World)
TTITLE11=Dierks Bentley - I Hold On
TTITLE12=Shane Nicholson - When The Money's All Gone
TTITLE13=John Williamson - Girt By Sea
TTITLE14=Kaylee Bell - Little Bit Small Town
TTITLE15=Mike Carr - More Than I Expected
TTITLE16=Jayne Denham - Shelter
TTITLE17=Tim Hicks - Stronger Beer
TTITLE18=Jody Direen - Heartbreaking Honey
TTITLE19=Eric Paslay - Song About A Girl
TTITLE20=Christie Lamb - Manhunt
EXTD=
EXTT0=
EXTT1=
EXTT2=
EXTT3=
EXTT4=
EXTT5=
EXTT6=
EXTT7=
EXTT8=
EXTT9=
EXTT10=
EXTT11=
EXTT12=
EXTT13=
EXTT14=
EXTT15=
EXTT16=
EXTT17=
EXTT18=
EXTT19=
EXTT20=
PLAYORDER=
